<svg width="17" height="14" viewBox="0 0 17 14" fill="none" xmlns="http://www.w3.org/2000/svg">
<path d="M1.64706 11.5294V10.9941C1.64706 10.7141 1.77882 10.4506 1.98471 10.3271C3.37647 9.49529 4.96588 9.05882 6.58823 9.05882C6.61294 9.05882 6.62941 9.05882 6.65412 9.06706C6.73647 8.49059 6.90118 7.93882 7.14 7.43647C6.95882 7.42 6.77765 7.41176 6.58823 7.41176C4.59529 7.41176 2.73412 7.96353 1.14471 8.91059C0.42 9.33882 0 10.1459 0 10.9941V13.1765H7.62588C7.28 12.6824 7.00823 12.1224 6.82706 11.5294H1.64706ZM6.58823 6.58824C8.40823 6.58824 9.88235 5.11412 9.88235 3.29412C9.88235 1.47412 8.40823 0 6.58823 0C4.76824 0 3.29412 1.47412 3.29412 3.29412C3.29412 5.11412 4.76824 6.58824 6.58823 6.58824ZM6.58823 1.64706C7.49412 1.64706 8.23529 2.38824 8.23529 3.29412C8.23529 4.2 7.49412 4.94118 6.58823 4.94118C5.68235 4.94118 4.94118 4.2 4.94118 3.29412C4.94118 2.38824 5.68235 1.64706 6.58823 1.64706ZM15.4412 9.88235C15.4412 9.70118 15.4165 9.53647 15.3918 9.36353L16.3306 8.53176L15.5071 7.10706L14.3129 7.51059C14.0494 7.28824 13.7529 7.11529 13.4235 6.99176L13.1765 5.76471H11.5294L11.2824 6.99176C10.9529 7.11529 10.6565 7.28824 10.3929 7.51059L9.19882 7.10706L8.37529 8.53176L9.31412 9.36353C9.28941 9.53647 9.26471 9.70118 9.26471 9.88235C9.26471 10.0635 9.28941 10.2282 9.31412 10.4012L8.37529 11.2329L9.19882 12.6576L10.3929 12.2541C10.6565 12.4765 10.9529 12.6494 11.2824 12.7729L11.5294 14H13.1765L13.4235 12.7729C13.7529 12.6494 14.0494 12.4765 14.3129 12.2541L15.5071 12.6576L16.3306 11.2329L15.3918 10.4012C15.4165 10.2282 15.4412 10.0635 15.4412 9.88235ZM12.3529 11.5294C11.4471 11.5294 10.7059 10.7882 10.7059 9.88235C10.7059 8.97647 11.4471 8.23529 12.3529 8.23529C13.2588 8.23529 14 8.97647 14 9.88235C14 10.7882 13.2588 11.5294 12.3529 11.5294Z" fill="#649FDB"/>
</svg>
