<svg width="30" height="30" viewBox="0 0 30 30" fill="none" xmlns="http://www.w3.org/2000/svg">
<path d="M13.75 10.9374V15.5374C13.75 15.9749 13.9875 16.3874 14.3625 16.6124L18.2625 18.9249C18.7125 19.1874 19.2875 19.0374 19.55 18.5999C19.8125 18.1499 19.675 17.5749 19.225 17.3124L15.6375 15.1749V10.9249C15.625 10.4249 15.2 9.99989 14.6875 9.99989C14.175 9.99989 13.75 10.4249 13.75 10.9374V10.9374ZM26.25 11.8749V5.26239C26.25 4.69989 25.575 4.42489 25.1875 4.82489L22.9625 7.04989C21.7916 5.87891 20.3768 4.98055 18.8191 4.4188C17.2613 3.85704 15.5988 3.64572 13.95 3.79989C8.71251 4.27489 4.40001 8.48739 3.82501 13.7249C3.52106 16.6616 4.38374 19.6001 6.22693 21.9065C8.07013 24.2128 10.7461 25.7022 13.6776 26.0533C16.609 26.4043 19.561 25.5889 21.8967 23.783C24.2323 21.9771 25.7644 19.3253 26.1625 16.3999C26.25 15.6499 25.6625 14.9999 24.9125 14.9999C24.2875 14.9999 23.7625 15.4624 23.6875 16.0749C23.15 20.4374 19.3875 23.8124 14.875 23.7499C10.2375 23.6874 6.32501 19.7749 6.25001 15.1249C6.17501 10.2499 10.1375 6.24989 15 6.24989C17.4125 6.24989 19.6 7.23739 21.1875 8.81239L18.575 11.4249C18.175 11.8249 18.45 12.4999 19.0125 12.4999H25.625C25.975 12.4999 26.25 12.2249 26.25 11.8749Z" fill="#1B73D1"/>
</svg>


