<svg width="12" height="15" viewBox="0 0 12 15" fill="none" xmlns="http://www.w3.org/2000/svg">
<path d="M3 3.35C2.64101 3.35 2.35 3.64101 2.35 4C2.35 4.35899 2.64101 4.65 3 4.65V3.35ZM5 4.65C5.35898 4.65 5.65 4.35899 5.65 4C5.65 3.64101 5.35898 3.35 5 3.35V4.65ZM3 6.85C2.64101 6.85 2.35 7.14102 2.35 7.5C2.35 7.85898 2.64101 8.15 3 8.15V6.85ZM9 8.15C9.35898 8.15 9.65 7.85898 9.65 7.5C9.65 7.14102 9.35898 6.85 9 6.85V8.15ZM3 8.85C2.64101 8.85 2.35 9.14102 2.35 9.5C2.35 9.85898 2.64101 10.15 3 10.15V8.85ZM9 10.15C9.35898 10.15 9.65 9.85898 9.65 9.5C9.65 9.14102 9.35898 8.85 9 8.85V10.15ZM3 10.85C2.64101 10.85 2.35 11.141 2.35 11.5C2.35 11.859 2.64101 12.15 3 12.15V10.85ZM5 12.15C5.35898 12.15 5.65 11.859 5.65 11.5C5.65 11.141 5.35898 10.85 5 10.85V12.15ZM2 1.65H10V0.35H2V1.65ZM10.35 2V13H11.65V2H10.35ZM10 13.35H2V14.65H10V13.35ZM1.65 13V2H0.35V13H1.65ZM2 13.35C1.8067 13.35 1.65 13.1933 1.65 13H0.35C0.35 13.9113 1.08873 14.65 2 14.65V13.35ZM10.35 13C10.35 13.1933 10.1933 13.35 10 13.35V14.65C10.9113 14.65 11.65 13.9113 11.65 13H10.35ZM10 1.65C10.1933 1.65 10.35 1.8067 10.35 2H11.65C11.65 1.08873 10.9113 0.35 10 0.35V1.65ZM2 0.35C1.08873 0.35 0.35 1.08873 0.35 2H1.65C1.65 1.8067 1.8067 1.65 2 1.65V0.35ZM3 4.65H5V3.35H3V4.65ZM3 8.15H9V6.85H3V8.15ZM3 10.15H9V8.85H3V10.15ZM3 12.15H5V10.85H3V12.15Z" fill="#649FDB"/>
</svg>
