<svg width="16" height="16" viewBox="0 0 16 16" fill="none" xmlns="http://www.w3.org/2000/svg">
<path d="M6.31704 2.88361L6.50442 3.4536L6.31704 2.88361ZM6.5009 2.68872L5.91881 2.5432L6.5009 2.68872ZM5.30469 3.18452L4.996 3.69902L5.30469 3.18452ZM5.5726 3.19226L5.30175 2.65688L5.5726 3.19226ZM3.66311 2.4374L3.23885 2.01313L3.66311 2.4374ZM3.99201 2.39691L4.3007 1.88241V1.88241L3.99201 2.39691ZM2.39691 3.99201L1.88241 4.30071L2.39691 3.99201ZM2.43739 3.66312L2.86166 4.08738L2.43739 3.66312ZM3.19226 5.57261L2.65687 5.30176L3.19226 5.57261ZM3.18452 5.3047L2.67002 5.6134L3.18452 5.3047ZM2.68872 6.5009L2.5432 5.91881H2.5432L2.68872 6.5009ZM2.88361 6.31704L3.4536 6.50442L2.88361 6.31704ZM1 7.13329H1.6H1ZM1.20393 6.8721L1.34945 7.45418H1.34945L1.20393 6.8721ZM1.20393 9.12791L1.34945 8.54582H1.34945L1.20393 9.12791ZM1 8.86672H0.4H1ZM2.88361 9.68296L3.4536 9.49558L2.88361 9.68296ZM2.68872 9.4991L2.5432 10.0812L2.68872 9.4991ZM3.18452 10.6953L3.69902 11.004H3.69902L3.18452 10.6953ZM3.19226 10.4274L3.72765 10.1566L3.19226 10.4274ZM2.4374 12.3369L2.01313 12.7612H2.01313L2.4374 12.3369ZM2.39691 12.008L1.88241 11.6993H1.88241L2.39691 12.008ZM3.99201 13.6031L3.68331 13.0886H3.68331L3.99201 13.6031ZM3.66312 13.5626L4.08738 13.1383L3.66312 13.5626ZM5.57261 12.8077L5.84346 12.2724L5.57261 12.8077ZM5.3047 12.8155L5.6134 13.33H5.6134L5.3047 12.8155ZM6.33503 13.2359L5.76582 13.4256L6.33503 13.2359ZM6.16548 13.064L5.96108 13.6281L6.16548 13.064ZM6.86171 14.8159L7.43092 14.6262L6.86171 14.8159ZM9.13829 14.8159L8.56908 14.6262L9.13829 14.8159ZM9.83452 13.064L10.0389 13.6281L9.83452 13.064ZM9.66497 13.2359L10.2342 13.4256V13.4256L9.66497 13.2359ZM10.5248 12.8795L10.7931 12.3429L10.5248 12.8795ZM10.2832 12.878L10.0285 12.3347L10.2832 12.878ZM12.3255 13.574L11.9012 13.1498L12.3255 13.574ZM12.0147 13.6245L11.7464 14.1611L12.0147 13.6245ZM13.6245 12.0147L13.0878 12.283L13.6245 12.0147ZM13.574 12.3255L13.9983 12.7497L13.574 12.3255ZM12.878 10.2832L13.4212 10.538L12.878 10.2832ZM12.8795 10.5248L13.4162 10.2564L12.8795 10.5248ZM13.2359 9.66497L13.4256 10.2342L13.2359 9.66497ZM13.064 9.83452L12.4999 9.63012L13.064 9.83452ZM14.8159 9.13829L14.6262 8.56908V8.56908L14.8159 9.13829ZM14.8159 6.86171L15.0056 6.2925L14.8159 6.86171ZM13.064 6.16548L13.6281 5.96108L13.064 6.16548ZM13.2359 6.33503L13.0461 6.90424L13.2359 6.33503ZM12.8795 5.47524L13.4162 5.74357L12.8795 5.47524ZM12.878 5.71676L13.4212 5.46204L12.878 5.71676ZM13.574 3.67454L13.1498 4.0988V4.0988L13.574 3.67454ZM13.6245 3.98532L13.0878 3.71699L13.6245 3.98532ZM12.0147 2.37553L11.7464 1.83888L11.7464 1.83888L12.0147 2.37553ZM12.3255 2.42597L12.7497 2.0017V2.0017L12.3255 2.42597ZM10.2832 3.12202L10.538 2.57878L10.2832 3.12202ZM10.5248 3.12049L10.7931 3.65715V3.65715L10.5248 3.12049ZM9.4991 2.68872L10.0812 2.5432L9.4991 2.68872ZM9.68296 2.88361L9.49558 3.4536L9.68296 2.88361ZM6.87209 1.20393L7.45418 1.34945V1.34945L6.87209 1.20393ZM9.12791 1.20393L8.54582 1.34945L8.54582 1.34945L9.12791 1.20393ZM8.86671 0.4H7.13329V1.6H8.86671V0.4ZM10.0812 2.5432L9.70999 1.05841L8.54582 1.34945L8.91702 2.83424L10.0812 2.5432ZM9.49558 3.4536C9.67831 3.51367 9.8562 3.58447 10.0285 3.66527L10.538 2.57878C10.3222 2.4776 10.0993 2.3889 9.87033 2.31362L9.49558 3.4536ZM11.7464 1.83888L10.2564 2.58384L10.7931 3.65715L12.283 2.91219L11.7464 1.83888ZM13.9983 3.25027L12.7497 2.0017L11.9012 2.85023L13.1498 4.0988L13.9983 3.25027ZM13.4162 5.74357L14.1611 4.25364L13.0878 3.71699L12.3429 5.20691L13.4162 5.74357ZM12.3347 5.97148C12.3956 6.10123 12.4507 6.23413 12.4999 6.36988L13.6281 5.96108C13.5665 5.79099 13.4974 5.62451 13.4212 5.46204L12.3347 5.97148ZM15.0056 6.2925L13.4256 5.76582L13.0461 6.90424L14.6262 7.43092L15.0056 6.2925ZM15.6 8.88287V7.11713H14.4V8.88287H15.6ZM13.4256 10.2342L15.0056 9.7075L14.6262 8.56908L13.0461 9.09576L13.4256 10.2342ZM12.4999 9.63012C12.4507 9.76587 12.3956 9.89878 12.3347 10.0285L13.4212 10.538C13.4974 10.3755 13.5665 10.209 13.6281 10.0389L12.4999 9.63012ZM14.1611 11.7464L13.4162 10.2564L12.3428 10.7931L13.0878 12.283L14.1611 11.7464ZM12.7497 13.9983L13.9983 12.7497L13.1498 11.9012L11.9012 13.1498L12.7497 13.9983ZM10.2564 13.4162L11.7464 14.1611L12.283 13.0878L10.7931 12.3429L10.2564 13.4162ZM10.0285 12.3347C9.89877 12.3956 9.76587 12.4507 9.63012 12.4999L10.0389 13.6281C10.209 13.5665 10.3755 13.4974 10.538 13.4212L10.0285 12.3347ZM9.7075 15.0056L10.2342 13.4256L9.09576 13.0461L8.56908 14.6262L9.7075 15.0056ZM7.11713 15.6H8.88287V14.4H7.11713V15.6ZM5.76582 13.4256L6.2925 15.0056L7.43092 14.6262L6.90424 13.0461L5.76582 13.4256ZM6.36988 12.4999C6.18912 12.4344 6.0134 12.3583 5.84346 12.2724L5.30176 13.3431C5.5145 13.4508 5.73459 13.5461 5.96108 13.6281L6.36988 12.4999ZM4.30071 14.1176L5.6134 13.33L4.996 12.301L3.68331 13.0886L4.30071 14.1176ZM2.01313 12.7612L3.23885 13.9869L4.08738 13.1383L2.86166 11.9126L2.01313 12.7612ZM2.67003 10.3866L1.88241 11.6993L2.91141 12.3167L3.69902 11.004L2.67003 10.3866ZM3.72765 10.1566C3.62049 9.94473 3.52867 9.72392 3.4536 9.49558L2.31362 9.87034C2.40769 10.1565 2.52273 10.4331 2.65688 10.6982L3.72765 10.1566ZM1.05841 9.70999L2.5432 10.0812L2.83424 8.91702L1.34945 8.54582L1.05841 9.70999ZM0.4 7.13329L0.4 8.86672H1.6L1.6 7.13329H0.4ZM2.5432 5.91881L1.05841 6.29001L1.34945 7.45418L2.83424 7.08298L2.5432 5.91881ZM3.4536 6.50442C3.52867 6.27608 3.62049 6.05527 3.72765 5.84345L2.65687 5.30176C2.52272 5.56693 2.40769 5.84351 2.31362 6.12966L3.4536 6.50442ZM1.88241 4.30071L2.67002 5.6134L3.69902 4.996L2.9114 3.68331L1.88241 4.30071ZM3.23885 2.01313L2.01313 3.23885L2.86166 4.08738L4.08738 2.86166L3.23885 2.01313ZM5.61339 2.67003L4.3007 1.88241L3.68331 2.91141L4.996 3.69902L5.61339 2.67003ZM5.84345 3.72765C6.05527 3.62049 6.27608 3.52867 6.50442 3.4536L6.12966 2.31362C5.84351 2.40769 5.56693 2.52273 5.30175 2.65688L5.84345 3.72765ZM6.29001 1.05841L5.91881 2.5432L7.08298 2.83424L7.45418 1.34945L6.29001 1.05841ZM6.50442 3.4536C6.78144 3.36253 7.00763 3.13563 7.08298 2.83424L5.91881 2.5432C5.94798 2.42653 6.03352 2.34523 6.12966 2.31362L6.50442 3.4536ZM4.996 3.69902C5.26248 3.85891 5.58305 3.85939 5.84345 3.72765L5.30175 2.65688C5.39217 2.61113 5.51025 2.60814 5.61339 2.67003L4.996 3.69902ZM4.08738 2.86166C3.98005 2.96899 3.81346 2.9895 3.68331 2.91141L4.3007 1.88241C3.95868 1.6772 3.52089 1.7311 3.23885 2.01313L4.08738 2.86166ZM2.9114 3.68331C2.98949 3.81346 2.96898 3.98006 2.86166 4.08738L2.01313 3.23885C1.73109 3.52089 1.6772 3.95869 1.88241 4.30071L2.9114 3.68331ZM3.72765 5.84345C3.85938 5.58306 3.85891 5.26249 3.69902 4.996L2.67002 5.6134C2.60814 5.51025 2.61113 5.39218 2.65687 5.30176L3.72765 5.84345ZM2.83424 7.08298C3.13563 7.00764 3.36253 6.78144 3.4536 6.50442L2.31362 6.12966C2.34523 6.03353 2.42653 5.94798 2.5432 5.91881L2.83424 7.08298ZM1.6 7.13329C1.6 7.28507 1.4967 7.41737 1.34945 7.45418L1.05841 6.29001C0.671459 6.38675 0.4 6.73443 0.4 7.13329H1.6ZM1.34945 8.54582C1.4967 8.58263 1.6 8.71494 1.6 8.86672H0.4C0.4 9.26558 0.671459 9.61326 1.05841 9.70999L1.34945 8.54582ZM3.4536 9.49558C3.36253 9.21856 3.13563 8.99237 2.83424 8.91702L2.5432 10.0812C2.42653 10.052 2.34523 9.96648 2.31362 9.87034L3.4536 9.49558ZM3.69902 11.004C3.85891 10.7375 3.85938 10.4169 3.72765 10.1566L2.65688 10.6982C2.61113 10.6078 2.60814 10.4898 2.67003 10.3866L3.69902 11.004ZM2.86166 11.9126C2.96899 12.0199 2.9895 12.1865 2.91141 12.3167L1.88241 11.6993C1.6772 12.0413 1.7311 12.4791 2.01313 12.7612L2.86166 11.9126ZM3.68331 13.0886C3.81346 13.0105 3.98006 13.031 4.08738 13.1383L3.23885 13.9869C3.52089 14.2689 3.95869 14.3228 4.30071 14.1176L3.68331 13.0886ZM5.84346 12.2724C5.58306 12.1406 5.26249 12.1411 4.996 12.301L5.6134 13.33C5.51025 13.3919 5.39218 13.3889 5.30176 13.3431L5.84346 12.2724ZM6.90424 13.0461C6.81691 12.7841 6.61417 12.5884 6.36988 12.4999L5.96108 13.6281C5.87601 13.5973 5.79959 13.5269 5.76582 13.4256L6.90424 13.0461ZM7.11713 14.4C7.2595 14.4 7.3859 14.4911 7.43092 14.6262L6.2925 15.0056C6.41082 15.3606 6.74299 15.6 7.11713 15.6V14.4ZM8.56908 14.6262C8.6141 14.4911 8.7405 14.4 8.88287 14.4V15.6C9.25701 15.6 9.58918 15.3606 9.7075 15.0056L8.56908 14.6262ZM9.63012 12.4999C9.38583 12.5884 9.18309 12.7841 9.09576 13.0461L10.2342 13.4256C10.2004 13.5269 10.124 13.5973 10.0389 13.6281L9.63012 12.4999ZM10.7931 12.3429C10.5459 12.2193 10.264 12.2243 10.0285 12.3347L10.538 13.4212C10.4559 13.4597 10.352 13.464 10.2564 13.4162L10.7931 12.3429ZM11.9012 13.1498C12.0019 13.0491 12.1557 13.0241 12.283 13.0878L11.7464 14.1611C12.081 14.3285 12.4852 14.2629 12.7497 13.9983L11.9012 13.1498ZM13.0878 12.283C13.0241 12.1557 13.0491 12.0019 13.1498 11.9012L13.9983 12.7497C14.2629 12.4852 14.3284 12.081 14.1611 11.7464L13.0878 12.283ZM12.3347 10.0285C12.2243 10.264 12.2193 10.5459 12.3428 10.7931L13.4162 10.2564C13.464 10.352 13.4597 10.4559 13.4212 10.538L12.3347 10.0285ZM13.0461 9.09576C12.7841 9.18309 12.5884 9.38583 12.4999 9.63012L13.6281 10.0389C13.5973 10.124 13.5269 10.2004 13.4256 10.2342L13.0461 9.09576ZM14.4 8.88287C14.4 8.7405 14.4911 8.6141 14.6262 8.56908L15.0056 9.7075C15.3606 9.58918 15.6 9.25701 15.6 8.88287H14.4ZM14.6262 7.43092C14.4911 7.3859 14.4 7.2595 14.4 7.11713H15.6C15.6 6.74299 15.3606 6.41082 15.0056 6.2925L14.6262 7.43092ZM12.4999 6.36988C12.5884 6.61417 12.7841 6.81691 13.0461 6.90424L13.4256 5.76582C13.5269 5.79959 13.5973 5.87601 13.6281 5.96108L12.4999 6.36988ZM12.3429 5.20691C12.2193 5.45407 12.2243 5.73602 12.3347 5.97148L13.4212 5.46204C13.4597 5.54407 13.464 5.64798 13.4162 5.74357L12.3429 5.20691ZM13.1498 4.0988C13.0491 3.99813 13.0241 3.84434 13.0878 3.71699L14.1611 4.25364C14.3285 3.919 14.2629 3.51483 13.9983 3.25027L13.1498 4.0988ZM12.283 2.91219C12.1557 2.97586 12.0019 2.9509 11.9012 2.85023L12.7497 2.0017C12.4852 1.73714 12.081 1.67156 11.7464 1.83888L12.283 2.91219ZM10.0285 3.66527C10.264 3.77567 10.5459 3.78073 10.7931 3.65715L10.2564 2.58384C10.352 2.53604 10.4559 2.54032 10.538 2.57878L10.0285 3.66527ZM8.91702 2.83424C8.99236 3.13563 9.21855 3.36253 9.49558 3.4536L9.87033 2.31362C9.96648 2.34523 10.052 2.42653 10.0812 2.5432L8.91702 2.83424ZM7.13329 0.4C6.73442 0.4 6.38675 0.671459 6.29001 1.05841L7.45418 1.34945C7.41737 1.4967 7.28506 1.6 7.13329 1.6V0.4ZM8.86671 1.6C8.71493 1.6 8.58263 1.4967 8.54582 1.34945L9.70999 1.05841C9.61325 0.671458 9.26558 0.4 8.86671 0.4V1.6ZM10.0923 8C10.0923 9.15555 9.15555 10.0923 8 10.0923V11.2923C9.81829 11.2923 11.2923 9.81829 11.2923 8H10.0923ZM8 10.0923C6.84445 10.0923 5.90769 9.15555 5.90769 8H4.70769C4.70769 9.81829 6.18171 11.2923 8 11.2923V10.0923ZM5.90769 8C5.90769 6.84445 6.84445 5.90769 8 5.90769V4.70769C6.18171 4.70769 4.70769 6.18171 4.70769 8H5.90769ZM8 5.90769C9.15555 5.90769 10.0923 6.84445 10.0923 8H11.2923C11.2923 6.18171 9.81829 4.70769 8 4.70769V5.90769Z" fill="#649FDB"/>
</svg>
