<svg width="21" height="21" viewBox="0 0 21 21" fill="none" xmlns="http://www.w3.org/2000/svg">
<path d="M8.21599 3.55633L8.41898 4.17382L8.21599 3.55633ZM8.4655 3.29184L7.83491 3.13419L8.4655 3.29184ZM6.84208 3.96471L6.50766 4.52208L6.84208 3.96471ZM7.20567 3.97522L7.49909 4.55522L7.20567 3.97522ZM4.61422 2.95076L4.1546 2.49114L4.61422 2.95076ZM5.06058 2.89581L5.395 2.33844V2.33844L5.06058 2.89581ZM2.8958 5.06059L2.33843 5.39501L2.8958 5.06059ZM2.95075 4.61423L3.41037 5.07385L2.95075 4.61423ZM3.97521 7.20568L3.39521 6.91226L3.97521 7.20568ZM3.9647 6.84209L4.52207 6.50767L3.9647 6.84209ZM3.29183 8.4655L3.13419 7.83491H3.13419L3.29183 8.4655ZM3.55633 8.21599L4.17382 8.41898L3.55633 8.21599ZM1.27677 8.96927L1.43441 9.59986H1.43441L1.27677 8.96927ZM1.27677 12.0307L1.43441 11.4001H1.43441L1.27677 12.0307ZM3.55633 12.784L2.93884 12.987L3.55633 12.784ZM3.29184 12.5345L3.13419 13.1651L3.29184 12.5345ZM3.96471 14.1579L4.52208 14.4923H4.52208L3.96471 14.1579ZM3.97522 13.7943L4.55522 13.5009L3.97522 13.7943ZM2.95076 16.3858L2.49114 16.8454L2.95076 16.3858ZM2.89581 15.9394L2.33844 15.605L2.89581 15.9394ZM5.06059 18.1042L4.72616 17.5468V17.5468L5.06059 18.1042ZM4.61423 18.0493L5.07385 17.5896L4.61423 18.0493ZM7.20568 17.0248L7.4991 16.4448L7.20568 17.0248ZM6.84209 17.0353L7.17651 17.5927L6.84209 17.0353ZM8.24039 17.6058L7.62375 17.8113L8.24039 17.6058ZM8.01029 17.3726L7.78886 17.9837L8.01029 17.3726ZM8.95518 19.7502L9.57182 19.5446L8.95518 19.7502ZM12.0448 19.7502L11.4282 19.5446L12.0448 19.7502ZM12.9897 17.3726L13.2111 17.9837L12.9897 17.3726ZM12.7596 17.6058L13.3763 17.8113L12.7596 17.6058ZM13.9265 17.1222L14.2172 16.5408L13.9265 17.1222ZM13.5987 17.1201L13.3227 16.5316L13.5987 17.1201ZM15.9485 18.1332L15.6578 18.7146L15.9485 18.1332ZM18.1332 15.9485L17.5518 16.2392L18.1332 15.9485ZM17.1201 13.5987L17.7086 13.8746L17.1201 13.5987ZM17.1222 13.9265L17.7036 13.6358L17.1222 13.9265ZM17.6058 12.7596L17.8113 13.3763L17.6058 12.7596ZM17.3726 12.9897L16.7615 12.7683L17.3726 12.9897ZM19.7502 12.0448L19.5446 11.4282L19.7502 12.0448ZM19.7502 8.95518L19.9557 8.33854L19.7502 8.95518ZM17.3726 8.01029L17.9837 7.78886L17.3726 8.01029ZM17.6058 8.24039L17.4002 8.85704L17.6058 8.24039ZM17.1222 7.07354L17.7036 7.36423L17.1222 7.07354ZM17.1201 7.40132L17.7086 7.12538L17.1201 7.40132ZM18.0648 4.62973L17.6051 5.08935L18.0648 4.62973ZM18.1332 5.0515L17.5518 4.76081L18.1332 5.0515ZM15.9485 2.8668L15.6578 2.28542V2.28542L15.9485 2.8668ZM16.3703 2.93524L16.8299 2.47562V2.47562L16.3703 2.93524ZM13.5987 3.87989L13.8746 3.29137L13.5987 3.87989ZM13.9265 3.87781L14.2172 4.45919H14.2172L13.9265 3.87781ZM12.5345 3.29183L13.1651 3.13419L12.5345 3.29183ZM12.784 3.55633L12.581 4.17382L12.784 3.55633ZM8.96927 1.27677L9.59986 1.43441L8.96927 1.27677ZM12.0307 1.27677L11.4001 1.43441V1.43441L12.0307 1.27677ZM11.6763 0.35H9.32374V1.65H11.6763V0.35ZM13.1651 3.13419L12.6613 1.11912L11.4001 1.43441L11.9039 3.44948L13.1651 3.13419ZM12.581 4.17382C12.8353 4.25742 13.0829 4.35596 13.3227 4.46841L13.8746 3.29137C13.5877 3.15685 13.2914 3.03892 12.987 2.93884L12.581 4.17382ZM15.6578 2.28542L13.6358 3.29644L14.2172 4.45919L16.2392 3.44817L15.6578 2.28542ZM18.5244 4.17011L16.8299 2.47562L15.9107 3.39486L17.6051 5.08935L18.5244 4.17011ZM17.7036 7.36423L18.7146 5.34219L17.5518 4.76081L16.5408 6.78285L17.7036 7.36423ZM16.5316 7.67726C16.6163 7.85783 16.693 8.0428 16.7615 8.23172L17.9837 7.78886C17.9018 7.56273 17.8099 7.34139 17.7086 7.12538L16.5316 7.67726ZM19.9557 8.33854L17.8113 7.62375L17.4002 8.85704L19.5446 9.57183L19.9557 8.33854ZM20.65 11.6982V9.30182H19.35V11.6982H20.65ZM17.8113 13.3763L19.9557 12.6615L19.5446 11.4282L17.4002 12.143L17.8113 13.3763ZM16.7615 12.7683C16.693 12.9572 16.6163 13.1422 16.5316 13.3227L17.7086 13.8746C17.8099 13.6586 17.9018 13.4373 17.9837 13.2111L16.7615 12.7683ZM18.7146 15.6578L17.7036 13.6358L16.5408 14.2172L17.5518 16.2392L18.7146 15.6578ZM16.8299 18.5244L18.5244 16.8299L17.6051 15.9107L15.9107 17.6051L16.8299 18.5244ZM13.6358 17.7036L15.6578 18.7146L16.2392 17.5518L14.2172 16.5408L13.6358 17.7036ZM13.3227 16.5316C13.1422 16.6163 12.9572 16.693 12.7683 16.7615L13.2111 17.9837C13.4373 17.9018 13.6586 17.8099 13.8746 17.7086L13.3227 16.5316ZM12.6615 19.9557L13.3763 17.8113L12.143 17.4002L11.4282 19.5446L12.6615 19.9557ZM9.30181 20.65H11.6982V19.35H9.30181V20.65ZM7.62375 17.8113L8.33854 19.9557L9.57182 19.5446L8.85704 17.4002L7.62375 17.8113ZM8.23172 16.7615C7.98015 16.6703 7.7356 16.5644 7.4991 16.4448L6.91226 17.6048C7.19513 17.7479 7.48774 17.8746 7.78886 17.9837L8.23172 16.7615ZM5.39501 18.6616L7.17651 17.5927L6.50767 16.4779L4.72616 17.5468L5.39501 18.6616ZM2.49114 16.8454L4.15461 18.5089L5.07385 17.5896L3.41037 15.9262L2.49114 16.8454ZM3.40734 13.8235L2.33844 15.605L3.45318 16.2738L4.52208 14.4923L3.40734 13.8235ZM4.55522 13.5009C4.40609 13.2061 4.2783 12.8988 4.17382 12.581L2.93884 12.987C3.06391 13.3674 3.21685 13.7352 3.39521 14.0877L4.55522 13.5009ZM1.11912 12.6613L3.13419 13.1651L3.44948 11.9039L1.43441 11.4001L1.11912 12.6613ZM0.35 9.32375L0.35 11.6763H1.65L1.65 9.32375H0.35ZM3.13419 7.83491L1.11912 8.33868L1.43441 9.59986L3.44948 9.0961L3.13419 7.83491ZM4.17382 8.41898C4.2783 8.10117 4.40609 7.79387 4.55522 7.4991L3.39521 6.91226C3.21684 7.26483 3.0639 7.63256 2.93884 8.01299L4.17382 8.41898ZM2.33843 5.39501L3.40733 7.17651L4.52207 6.50767L3.45317 4.72616L2.33843 5.39501ZM4.1546 2.49114L2.49113 4.15461L3.41037 5.07385L5.07384 3.41037L4.1546 2.49114ZM7.17651 3.40734L5.395 2.33844L4.72616 3.45318L6.50766 4.52208L7.17651 3.40734ZM7.49909 4.55522C7.79387 4.4061 8.10117 4.2783 8.41898 4.17382L8.01299 2.93884C7.63255 3.06391 7.26483 3.21685 6.91225 3.39521L7.49909 4.55522ZM8.33868 1.11912L7.83491 3.13419L9.09609 3.44948L9.59986 1.43441L8.33868 1.11912ZM8.41898 4.17382C8.74385 4.06702 9.00815 3.80128 9.09609 3.44948L7.83491 3.13419C7.86018 3.03309 7.93361 2.96494 8.01299 2.93884L8.41898 4.17382ZM6.50766 4.52208C6.81872 4.70871 7.19373 4.7097 7.49909 4.55522L6.91225 3.39521C6.98694 3.35743 7.08713 3.35371 7.17651 3.40734L6.50766 4.52208ZM5.07384 3.41037C4.98149 3.50272 4.83815 3.52037 4.72616 3.45318L5.395 2.33844C4.99547 2.09872 4.48406 2.16167 4.1546 2.49114L5.07384 3.41037ZM3.45317 4.72616C3.52036 4.83815 3.50272 4.9815 3.41037 5.07385L2.49113 4.15461C2.16167 4.48407 2.09871 4.99548 2.33843 5.39501L3.45317 4.72616ZM4.55522 7.4991C4.7097 7.19373 4.70871 6.81873 4.52207 6.50767L3.40733 7.17651C3.35371 7.08714 3.35743 6.98695 3.39521 6.91226L4.55522 7.4991ZM3.44948 9.0961C3.80128 9.00815 4.06702 8.74385 4.17382 8.41898L2.93884 8.01299C2.96494 7.93361 3.03308 7.86019 3.13419 7.83491L3.44948 9.0961ZM1.65 9.32375C1.65 9.45435 1.56112 9.56819 1.43441 9.59986L1.11912 8.33868C0.667102 8.45168 0.35 8.85782 0.35 9.32375H1.65ZM1.43441 11.4001C1.56112 11.4318 1.65 11.5457 1.65 11.6763H0.35C0.35 12.1422 0.667102 12.5483 1.11912 12.6613L1.43441 11.4001ZM4.17382 12.581C4.06702 12.2562 3.80128 11.9919 3.44948 11.9039L3.13419 13.1651C3.03308 13.1398 2.96494 13.0664 2.93884 12.987L4.17382 12.581ZM4.52208 14.4923C4.70871 14.1813 4.7097 13.8063 4.55522 13.5009L3.39521 14.0877C3.35743 14.0131 3.35371 13.9129 3.40734 13.8235L4.52208 14.4923ZM3.41037 15.9262C3.50272 16.0185 3.52037 16.1619 3.45318 16.2738L2.33844 15.605C2.09872 16.0045 2.16168 16.5159 2.49114 16.8454L3.41037 15.9262ZM4.72616 17.5468C4.83815 17.4796 4.9815 17.4973 5.07385 17.5896L4.15461 18.5089C4.48407 18.8383 4.99548 18.9013 5.39501 18.6616L4.72616 17.5468ZM7.4991 16.4448C7.19374 16.2903 6.81873 16.2913 6.50767 16.4779L7.17651 17.5927C7.08713 17.6463 6.98694 17.6426 6.91226 17.6048L7.4991 16.4448ZM8.85704 17.4002C8.7551 17.0944 8.51817 16.8653 8.23172 16.7615L7.78886 17.9837C7.7185 17.9582 7.65301 17.8991 7.62375 17.8113L8.85704 17.4002ZM9.30181 19.35C9.42432 19.35 9.53308 19.4284 9.57182 19.5446L8.33854 19.9557C8.47674 20.3703 8.86476 20.65 9.30181 20.65V19.35ZM11.4282 19.5446C11.4669 19.4284 11.5757 19.35 11.6982 19.35V20.65C12.1352 20.65 12.5233 20.3703 12.6615 19.9557L11.4282 19.5446ZM12.7683 16.7615C12.4818 16.8653 12.2449 17.0944 12.143 17.4002L13.3763 17.8113C13.347 17.8991 13.2815 17.9582 13.2111 17.9837L12.7683 16.7615ZM14.2172 16.5408C13.9286 16.3966 13.5988 16.4021 13.3227 16.5316L13.8746 17.7086C13.8068 17.7404 13.7186 17.745 13.6358 17.7036L14.2172 16.5408ZM15.9107 17.6051C15.9973 17.5185 16.1296 17.497 16.2392 17.5518L15.6578 18.7146C16.0487 18.91 16.5208 18.8334 16.8299 18.5244L15.9107 17.6051ZM17.5518 16.2392C17.497 16.1296 17.5185 15.9973 17.6051 15.9107L18.5244 16.8299C18.8334 16.5209 18.91 16.0487 18.7146 15.6578L17.5518 16.2392ZM16.5316 13.3227C16.4021 13.5988 16.3966 13.9287 16.5408 14.2172L17.7036 13.6358C17.745 13.7186 17.7404 13.8068 17.7086 13.8746L16.5316 13.3227ZM17.4002 12.143C17.0944 12.2449 16.8653 12.4818 16.7615 12.7683L17.9837 13.2111C17.9582 13.2815 17.8991 13.347 17.8113 13.3763L17.4002 12.143ZM19.35 11.6982C19.35 11.5757 19.4284 11.4669 19.5446 11.4282L19.9557 12.6615C20.3703 12.5233 20.65 12.1352 20.65 11.6982H19.35ZM19.5446 9.57183C19.4284 9.53309 19.35 9.42432 19.35 9.30182H20.65C20.65 8.86476 20.3703 8.47675 19.9557 8.33854L19.5446 9.57183ZM16.7615 8.23172C16.8653 8.51817 17.0944 8.7551 17.4002 8.85704L17.8113 7.62375C17.8991 7.65301 17.9582 7.7185 17.9837 7.78886L16.7615 8.23172ZM16.5408 6.78285C16.3966 7.07136 16.4021 7.40118 16.5316 7.67726L17.7086 7.12538C17.7404 7.19323 17.745 7.28142 17.7036 7.36423L16.5408 6.78285ZM17.6051 5.08935C17.5185 5.00272 17.497 4.87039 17.5518 4.76081L18.7146 5.34219C18.91 4.95128 18.8334 4.47915 18.5244 4.17011L17.6051 5.08935ZM16.2392 3.44817C16.1296 3.50296 15.9973 3.48149 15.9107 3.39486L16.8299 2.47562C16.5209 2.16658 16.0487 2.08996 15.6578 2.28542L16.2392 3.44817ZM13.3227 4.46841C13.5988 4.59786 13.9286 4.60345 14.2172 4.45919L13.6358 3.29644C13.7186 3.25503 13.8068 3.25956 13.8746 3.29137L13.3227 4.46841ZM11.9039 3.44948C11.9919 3.80127 12.2561 4.06702 12.581 4.17382L12.987 2.93884C13.0664 2.96494 13.1398 3.03309 13.1651 3.13419L11.9039 3.44948ZM9.32374 0.35C8.85782 0.35 8.45168 0.667102 8.33868 1.11912L9.59986 1.43441C9.56819 1.56112 9.45434 1.65 9.32374 1.65V0.35ZM11.6763 1.65C11.5457 1.65 11.4318 1.56112 11.4001 1.43441L12.6613 1.11912C12.5483 0.667102 12.1422 0.35 11.6763 0.35V1.65ZM13.5038 10.5C13.5038 12.159 12.159 13.5038 10.5 13.5038V14.8038C12.8769 14.8038 14.8038 12.8769 14.8038 10.5H13.5038ZM10.5 13.5038C8.84102 13.5038 7.49615 12.159 7.49615 10.5H6.19615C6.19615 12.8769 8.12305 14.8038 10.5 14.8038V13.5038ZM7.49615 10.5C7.49615 8.84102 8.84102 7.49615 10.5 7.49615V6.19615C8.12305 6.19615 6.19615 8.12305 6.19615 10.5H7.49615ZM10.5 7.49615C12.159 7.49615 13.5038 8.84102 13.5038 10.5H14.8038C14.8038 8.12305 12.8769 6.19615 10.5 6.19615V7.49615Z" fill="#2E4454"/>
</svg>
